<svg width="522" height="522" viewBox="0 0 522 522" fill="none" xmlns="http://www.w3.org/2000/svg">
<path d="M181.68 49.0394C180.763 49.3453 171.689 49.957 161.698 50.2629C147.322 50.7727 143.04 51.2824 141.817 52.5059C140.797 53.4234 140.593 54.341 141.205 54.9527C142.734 56.3801 151.604 59.7445 160.066 62.1914C164.246 63.4148 168.936 64.9441 170.364 65.7598C171.791 66.5754 175.054 67.493 177.5 67.9008C180.049 68.3086 184.127 70.1437 186.778 72.0809C189.429 73.916 191.978 75.4453 192.487 75.4453C193.609 75.4453 205.945 87.2719 205.945 88.3934C205.945 88.9031 207.271 91.1461 209.004 93.3891C210.635 95.632 212.47 99.8121 213.184 102.565C213.796 105.318 214.917 108.784 215.733 110.211C223.073 124.485 224.501 175.665 218.282 201.357L216.548 208.494L212.674 208.8L208.902 209.106L209.514 196.566C209.82 189.633 210.227 173.218 210.227 160.066C210.431 131.01 208.596 118.877 202.581 109.804C201.663 108.376 200.848 106.541 200.848 105.725C200.848 104.4 196.362 98.6906 189.633 91.6559C185.555 87.3738 168.936 76.6687 165.164 75.8531C163.737 75.5473 161.29 74.7316 159.557 74.018C150.483 69.9398 141.103 68.6145 137.739 70.9594C135.7 72.3867 135.598 73.4062 135.598 86.6602V100.73L139.88 104.4C142.225 106.439 144.671 108.07 145.283 108.07C147.118 108.07 163.431 125.402 165.572 129.48C171.893 141.409 174.748 147.832 175.971 151.91C176.685 154.459 177.704 157.823 178.316 159.557C181.273 167.917 182.802 181.986 183.414 207.679C184.127 237.755 183.516 235.818 192.691 239.182C195.24 240.202 197.789 241.527 198.401 242.343C199.012 243.056 199.828 243.668 200.134 243.668C201.357 243.668 220.219 263.549 220.219 264.874C220.219 265.384 220.83 266.404 221.646 267.015C222.462 267.729 224.501 271.195 226.336 274.866C228.069 278.434 229.904 281.391 230.414 281.391C232.351 281.391 233.473 277.312 233.473 270.482C233.473 260.592 237.755 227.763 239.488 224.501C239.998 223.583 240.711 220.729 241.119 218.18C241.425 215.631 242.648 211.145 243.77 208.188C244.789 205.232 245.707 201.663 245.707 200.338C245.707 199.012 246.319 196.362 247.134 194.527C247.95 192.691 249.377 188.409 250.295 185.045C251.212 181.68 252.64 177.093 253.455 174.85C254.169 172.607 255.189 168.427 255.495 165.674C255.902 162.819 256.718 159.964 257.33 159.149C258.859 157.11 261.204 137.739 261.204 126.932C261.204 114.391 259.471 98.5887 257.636 95.1223C256.82 93.593 255.393 90.4324 254.475 88.1895C249.989 77.9941 247.848 74.6297 241.731 68.1047C238.162 64.3324 234.492 61.1719 233.473 61.1719C232.453 61.1719 231.434 60.5602 231.128 59.8465C230.312 57.6035 215.835 51.1805 208.902 49.957C201.561 48.6316 184.331 48.1219 181.68 49.0394Z" fill="#044D90"/>
<path d="M291.892 49.957C284.857 49.957 291.178 58.5211 302.903 64.6382C305.859 66.1675 310.04 68.4105 311.569 69.2261C321.968 74.9355 343.379 96.4363 344.602 100.22C345.5 103 351.018 110.788 352.452 107.561C353.574 104.706 353.268 85.9464 352.044 80.5429C350.515 74.5277 348.578 69.3281 346.539 66.2695C343.734 61.9071 342.264 58.2941 338.179 54.6468C332.979 50.2628 332.673 50.1609 324.211 49.6511C313.175 48.8961 302.481 49.957 291.892 49.957Z" fill="#044D90"/>
<path d="M358.393 51.3096C357.272 52.635 357.374 53.7565 358.699 57.7326C359.616 60.3834 360.738 65.9908 361.248 70.2729C361.757 74.5549 362.675 81.6916 363.287 86.1776C364.714 96.5768 364.102 143.067 362.471 147.349C361.859 148.981 360.942 153.263 360.33 156.729C359.209 163.764 350.339 183.033 345.649 188.538C344.018 190.374 342.284 193.024 341.673 194.35C341.061 195.675 339.94 196.797 339.124 196.797C338.41 196.797 337.799 197.408 337.799 198.122C337.799 199.753 312.004 225.344 308.844 226.873C307.722 227.485 306.193 229.014 305.479 230.441C304.868 231.767 303.338 233.194 302.217 233.704C301.095 234.112 299.362 235.641 298.343 237.272C297.323 238.801 294.468 242.166 292.022 244.715C286.21 250.832 279.685 258.886 279.685 260.212C279.685 260.721 278.462 262.76 277.034 264.596C275.607 266.533 273.568 270.203 272.549 272.956C270.509 278.461 266.839 280.806 263.882 278.359C261.741 276.626 262.761 269.285 266.024 263.066C269.269 256.826 270.662 250.856 275.097 245.021C278.122 241.041 299.96 212.526 302.217 211.07C303.834 210.027 314.349 201.894 323.525 193.432C338.045 180.073 349.178 165.767 347.586 144.801C347.28 139.295 346.261 133.076 345.343 130.935C342.59 124.104 337.493 113.909 333.924 108.097C320.262 85.9973 278.819 52.0233 250.629 52.0233C245.837 52.0233 245.837 54.5721 250.629 59.16C275.615 84.146 280.491 127.695 271.121 160.603C270.306 163.356 269.184 168.454 268.47 171.818C267.859 175.183 266.227 180.688 265.004 184.053C261.334 193.228 259.295 199.753 257.867 205.972C257.154 209.031 256.134 212.701 255.522 214.129C254.911 215.556 253.891 219.226 253.279 222.285C249.915 238.088 249.099 241.452 248.182 245.326C247.57 247.569 246.652 253.279 246.143 258.071C245.531 262.76 244.613 269.591 244.002 273.262C242.166 284.578 239.72 314.655 238.496 340.551C238.088 347.585 237.375 359.208 236.763 366.549C232.481 421.196 232.379 460.04 236.661 462.792C237.171 463.098 238.292 464.73 239.21 466.463C242.065 472.07 245.531 474.415 251.648 474.925L257.256 475.333L262.761 469.623C265.718 466.463 268.878 462.181 269.694 460.04C275.709 445.256 277.442 435.775 278.666 413.447C279.481 395.911 283.05 364 284.681 358.392C285.191 356.659 285.904 353.499 286.312 351.256C287.128 346.464 288.861 340.449 293.551 327.195C295.488 321.791 297.017 316.694 297.017 315.98C297.017 315.164 297.935 313.431 299.056 312.004C300.178 310.576 301.095 308.945 301.095 308.231C301.095 307.518 302.829 304.255 304.97 300.789C307.009 297.322 309.557 293.04 310.475 291.307C311.495 289.472 315.471 284.476 319.447 280.194C323.321 275.912 326.584 272.14 326.584 271.834C326.584 271.222 331.579 266.125 332.191 266.125C332.497 266.125 333.516 265.411 334.536 264.596C342.896 257.357 345.445 255.42 348.3 253.89C352.072 251.851 364.816 245.53 371.239 242.472C375.623 240.433 379.497 235.743 383.066 227.892C384.187 225.649 385.411 222.999 385.818 222.081C386.328 221.062 386.736 183.237 386.736 137.97C386.736 59.7717 386.634 55.4897 384.799 53.1447C383.066 50.9018 382.046 50.6979 371.341 50.1881C361.554 49.7803 359.413 49.9842 358.393 51.3096Z" fill="#044D90"/>
<path d="M136.107 127.645C135.801 130.092 135.597 152.114 135.801 176.685C136.107 217.874 136.209 221.544 137.942 222.666C138.859 223.379 143.651 224.297 148.545 224.705C153.439 225.112 157.925 225.826 158.536 226.336C159.046 226.744 161.595 227.661 163.94 228.375C167.814 229.394 168.732 229.292 170.363 227.763C172.096 226.132 172.3 224.399 172.3 205.843C172.3 190.448 171.892 184.637 170.771 181.782C169.955 179.641 168.834 174.34 168.324 169.854C167.814 165.47 166.897 161.392 166.285 160.78C165.673 160.168 165.163 158.741 165.163 157.517C165.163 156.294 164.45 154.459 163.634 153.337C162.818 152.318 162.105 150.687 162.105 149.769C162.105 148.851 161.187 147.322 160.066 146.303C158.944 145.283 158.027 143.754 158.027 143.04C158.027 142.225 156.497 139.676 154.662 137.331C152.725 134.986 150.89 132.233 150.584 131.214C150.176 130.296 148.647 128.869 147.118 128.257C145.588 127.543 143.447 126.218 142.428 125.198C139.165 121.936 136.82 122.853 136.107 127.645Z" fill="#044D90"/>
<path d="M137.433 238.162C133.871 241.723 154.753 252.67 157.925 255.902C162.863 260.902 166.421 265.485 170.16 271.093C176.637 279.927 178.898 294.621 181.069 304.84C183.21 315.137 184.331 328.391 185.452 355.816C185.962 368.458 186.574 381.508 186.88 384.873C187.186 388.237 187.695 396.903 188.103 404.244C188.713 416.141 192.645 426.418 194.73 437.889C196.593 448.136 203.268 464.78 212.878 468.984C215.805 470.546 231.238 477.709 225.214 468.576C222.971 465.008 222.767 420.251 224.806 382.936C226.559 352.962 223.854 325.929 219.811 296.276C218.995 290.566 210.737 274.458 205.945 269.36C200.879 263.833 197.01 260.055 191.366 255.392C180.775 246.245 167.602 244.75 154.969 240.201C149.667 238.264 138.554 236.939 137.433 238.162Z" fill="#044D90"/>
<path d="M376.207 256.412C374.78 257.228 372.741 257.839 371.619 257.941C370.498 257.941 368.255 258.655 366.521 259.572C364.89 260.49 362.138 262.019 360.404 262.835C356.632 264.772 349.495 270.176 348.374 271.909C347.966 272.623 346.946 273.234 346.335 273.234C344.704 273.234 337.465 280.575 337.465 282.206C337.465 282.92 336.343 283.939 334.916 284.449C333.489 284.959 331.755 286.692 331.042 288.221C330.43 289.751 328.289 292.605 326.454 294.644C324.721 296.581 322.886 299.13 322.58 300.252C322.172 301.373 320.643 303.922 319.215 305.859C313.608 313.2 302.903 336.955 300.864 346.742C300.456 348.68 299.64 351.024 299.232 351.738C297.703 354.287 295.664 369.784 293.625 395.578C290.668 432.791 287.61 450.225 282.104 460.318C281.493 461.44 280.371 463.581 279.657 465.008C278.944 466.537 277.618 468.271 276.803 468.984C275.987 469.698 275.273 471.125 275.273 472.145C275.273 474.898 280.473 475.509 299.13 474.694C316.463 473.878 318.604 473.368 325.129 467.557C328.085 464.906 333.081 454.609 334.508 447.982C337.873 432.383 338.688 427.795 339.504 418.517C340.014 412.91 340.421 403.224 340.421 397.005C340.523 383.548 345.009 358.161 350.005 343.072C352.758 334.61 359.487 320.948 363.055 316.462C364.686 314.423 366.012 312.282 366.012 311.773C366.012 311.263 367.643 308.714 369.58 306.165C371.517 303.616 373.148 300.965 373.148 300.252C373.148 299.64 374.066 298.213 375.188 297.193C376.309 296.174 377.227 294.644 377.227 293.931C377.227 293.115 378.144 291.28 379.266 289.853C380.387 288.425 381.305 286.59 381.305 285.774C381.305 285.061 381.916 283.328 382.732 282.104C385.179 278.332 387.218 262.529 385.995 257.431C385.485 255.392 384.771 254.883 382.018 254.883C380.285 254.985 377.634 255.596 376.207 256.412Z" fill="#044D90"/>
<path d="M135.802 357.04L136.107 455.221L137.5 462C139.233 464.855 142.19 469.137 144.229 471.38L149.463 473.98L173.728 474.082C187.084 474.184 198.299 473.98 198.605 473.674C199.114 473.062 198.197 470.819 195.444 466.435C189.633 456.852 186.574 451.346 186.574 450.327C186.574 449.613 185.963 448.084 185.147 446.962C184.331 445.841 183.414 442.68 183.006 439.928C182.598 437.073 181.68 433.912 181.069 432.791C179.743 430.65 177.602 422.188 174.952 408.322C171.893 392.519 170.058 369.274 169.242 336.955C168.732 318.501 167.815 302.597 167.203 300.252C165.432 293.756 163.473 282.697 159.5 277C158.271 275.237 156.5 273 154 269.5C151.247 264.78 140.663 258.961 135.598 258.961L135.802 357.04Z" fill="#044D90"/>
</svg>
